<?xml version="1.0" encoding="UTF-8"?>
<!DOCTYPE svg PUBLIC "-//W3C//DTD SVG 1.1//EN" "http://www.w3.org/Graphics/SVG/1.1/DTD/svg11.dtd">
<!-- Creator: CorelDRAW 2019 (64-Bit) -->
<svg xmlns="http://www.w3.org/2000/svg" xml:space="preserve" width="165.343mm" height="35.1139mm" version="1.1" style="shape-rendering:geometricPrecision; text-rendering:geometricPrecision; image-rendering:optimizeQuality; fill-rule:evenodd; clip-rule:evenodd"
viewBox="0 0 170.0203 36.1072"
 xmlns:xlink="http://www.w3.org/1999/xlink"
 xmlns:xodm="http://www.corel.com/coreldraw/odm/2003">
 <defs>
  <style type="text/css">
   <![CDATA[
    .fil0 {fill:black}
   ]]>
  </style>
 </defs>
 <g id="Layer_x0020_1">
  <metadata id="CorelCorpID_0Corel-Layer"/>
  <g id="_887882912">
   <path class="fil0" d="M148.1799 13.4773c0.9224,-0.1356 3.273,-0.1308 4.2366,-0.035 1.1984,0.1192 2.3393,0.6138 3.0783,1.2119 1.8018,1.458 2.4452,2.832 2.4452,6.0172 0,2.1874 0.2623,6.2761 -0.4499,8.0102 -0.7487,1.8232 -2.4924,3.4033 -4.8314,3.685 -0.995,0.1197 -3.1527,0.1138 -4.1828,0.027 -1.2845,-0.1083 -2.3048,-0.5511 -3.1175,-1.1707 -2.1838,-1.6647 -2.4367,-3.433 -2.4367,-6.0254 0,-2.2631 -0.2821,-6.1191 0.4723,-7.9903 0.7277,-1.8052 2.4541,-3.3874 4.786,-3.73zm21.7996 10.8469l0 0c0.6785,-11.7903 -7.2152,-14.5391 -18.1999,-14.7246 -8.5034,-0.1435 -20.8001,0.6029 -21.2918,11.7057 -0.2646,5.9792 0.8053,9.5629 4.598,11.933 5.9831,3.7388 21.9079,3.5846 28.2671,0.913 4.0946,-1.7202 6.3127,-4.3744 6.6265,-9.8272z"/>
   <path class="fil0" d="M54.067 24.5449c0.9582,-0.2021 6.0246,-0.0815 7.6776,-0.0869 1.021,-0.0033 1.3768,0.0638 1.9028,0.6636 0.5477,0.6245 0.4144,1.3139 0.4144,2.22 0,0.8469 -0.0021,1.6942 0.0008,2.5411 0.0076,2.3243 -1.4941,2.185 -2.9532,2.185 -1.7203,0 -3.4406,0 -5.1607,0 -1.8919,0 -2.9418,-0.1127 -3.9114,-1.2121 -2.0282,-2.2999 -0.7876,-5.7166 2.0296,-6.3106zm3.8666 -14.7616l0 0c-3.5538,0 -9.7794,0.1682 -13.278,0.7759 -2.8939,0.5026 -3.0124,0.9688 -3.1311,3.9188 -0.0298,0.7395 0.4413,1.1467 1.2046,0.9946 1.3413,-0.2674 2.5386,-0.569 3.9283,-0.7719 3.7541,-0.5484 11.2551,-1.1375 15.1799,-0.1521 2.7107,0.6806 2.9619,4.9634 1.8619,5.7787 -0.4513,0.3346 -1.4266,0.1214 -2.0315,0.1064 -5.4155,-0.1342 -15.0898,-0.2825 -19.4814,1.8003 -1.4802,0.702 -1.9059,1.3668 -2.5981,2.9601 -0.5836,1.3437 -0.8565,3.219 -0.5175,4.8211 0.2856,1.3498 1.0464,2.6276 2.0794,3.4705 3.1813,2.5955 7.3109,2.4716 11.4641,2.471 2.3881,-0.0003 18.3622,-0.3187 20.173,-0.9885 1.7761,-0.6572 2.8617,-2.2994 2.861,-4.1329l-0.0488 -15.0871c0,-2.5092 -2.9351,-4.2382 -5.2162,-4.9097 -4.0605,-1.1952 -8.1796,-1.0557 -12.4495,-1.0553z"/>
   <path class="fil0" d="M40.5797 11.9369c0.3702,-1.897 -2.5797,-1.4409 -3.9243,-1.4418 -1.0405,-0.0006 -1.4691,-0.0196 -2.291,0.4212 -0.5335,0.286 -1.0226,0.8292 -1.2851,1.4145 -0.5464,1.219 -1.0626,2.5611 -1.5682,3.8333l-4.7114 11.5613c-1.6546,4.1147 -1.277,4.0981 -3.9597,4.1066 -0.9148,0.0028 -1.4288,-0.1555 -1.8136,-0.8496 -0.5035,-0.9079 -2.8986,-6.235 -3.4627,-7.4136l-5.1876 -11.0907c-0.7525,-1.5879 -1.2978,-1.9838 -3.4299,-1.983 -1.7997,0.0007 -3.5992,0 -5.3988,0 -1.1671,0 -3.187,-0.1939 -3.5286,1.8803 -0.1841,1.1176 1.033,2.9894 1.4783,3.9152l5.3439 10.8546c0.6075,1.2442 1.1903,2.4405 1.803,3.6744 0.4363,0.8787 1.3882,3.0106 1.8791,3.5209 1.0298,1.0702 2.7581,0.8358 4.5366,0.8358l10.8772 0c1.9351,0 3.2298,0.0469 4.0973,-1.2757l8.8242 -18.2524c0.3441,-0.7184 1.5959,-3.069 1.7213,-3.7113z"/>
   <path class="fil0" d="M128.6753 14.8889c1.1017,0.0303 0.9493,-0.9414 1.0209,-1.8395 0.0839,-1.0497 0.2722,-1.6398 -0.8645,-1.8168 -8.7793,-1.3671 -27.7421,-4.308 -32.5889,5.2708 -1.1635,2.2995 -0.9228,4.0786 -0.9228,6.8678 0,2.7242 -0.0934,4.6216 1.2144,6.656 0.5435,0.8456 1.0872,1.4864 1.8432,2.0472 4.7824,3.5482 11.282,3.9926 17.4356,3.9932 2.9656,0.0003 10.8172,-0.6889 13.4367,-1.7204 0.5532,-0.2178 0.5497,-0.6243 0.4996,-1.3036 -0.0284,-0.3838 -0.0458,-1.4819 -0.1569,-1.776 -0.2041,-0.5409 -0.7271,-0.538 -1.3377,-0.4566 -4.1168,0.5483 -13.8991,1.1811 -17.2208,-0.5169 -1.1382,-0.5818 -1.9013,-1.2669 -2.5445,-2.2202 -1.4464,-2.144 -1.1277,-4.2877 -1.1277,-7.0055 0,-1.7591 0.8929,-3.6828 2.0763,-4.7085 1.5833,-1.3724 3.0887,-1.8772 5.343,-1.8524l13.8941 0.3813z"/>
   <path class="fil0" d="M80.4171 33.0588c0.0655,0.8922 0.5431,1.4331 1.0682,1.7766 0.6946,0.4542 1.5689,0.341 2.49,0.341 1.1585,0 4.7061,0.1482 5.5146,-0.1757 1.6222,-0.65 1.3737,-2.3631 1.3737,-4.324l0 -17.1517c0,-1.5522 0.1121,-10.4865 -0.081,-11.2594 -0.4452,-1.7816 -1.8466,-2.2218 -3.4724,-2.2204 -1.4519,0.0012 -4.2419,-0.2318 -5.3498,0.3486 -1.7691,0.9267 -1.5461,2.627 -1.5461,4.1583l0 22.8688c0,1.7441 -0.1205,3.951 0.0029,5.6378z"/>
  </g>
 </g>
</svg>
